<svg width="73" height="83" viewBox="0 0 73 83" fill="none" xmlns="http://www.w3.org/2000/svg">
<path d="M72.6518 33.2524C41.1093 37.6683 18.7429 54.0704 7.21555 66.63L19.6605 73.7988C32.3348 52.522 53.2675 39.7903 72.6518 33.2524Z" fill="#011434"/>
<path d="M72.8238 27.46C42.1416 22.5853 16.6209 30.729 0.104156 39.9623V54.4718C20.7501 32.6789 49.253 26.5998 72.8238 27.46Z" fill="#011434"/>
<path d="M72.7665 23.1588C72.365 21.3236 71.046 19.431 69.5549 18.5708L39.905 1.48054C38.0698 0.390887 35.0303 0.390887 33.1377 1.48054L3.4878 18.5708C1.6526 19.6604 0.104156 22.2985 0.104156 24.4205V24.5925C25.1087 13.4667 52.522 16.3342 72.7665 23.1588Z" fill="#011434"/>
<path d="M31.5319 80.6808L33.1377 81.5984C34.9729 82.688 38.0124 82.688 39.905 81.5984L69.5549 64.5081C71.3901 63.4184 72.9385 60.8377 72.9385 58.6584V40.0197C52.694 51.4897 39.4462 67.1462 31.5319 80.6808Z" fill="#011434"/>
</svg>
